<?xml version="1.0" encoding="UTF-8"?>
<svg xmlns="http://www.w3.org/2000/svg" xmlns:xlink="http://www.w3.org/1999/xlink" width="469px" height="340px" viewBox="0 0 469 340" version="1.1">
<defs>
<filter id="alpha" filterUnits="objectBoundingBox" x="0%" y="0%" width="100%" height="100%">
  <feColorMatrix type="matrix" in="SourceGraphic" values="0 0 0 0 1 0 0 0 0 1 0 0 0 0 1 0 0 0 1 0"/>
</filter>
<mask id="mask0">
  <g filter="url(#alpha)">
<rect x="0" y="0" width="469" height="340" style="fill:rgb(0%,0%,0%);fill-opacity:0.2;stroke:none;"/>
  </g>
</mask>
<clipPath id="clip1">
  <rect x="0" y="0" width="469" height="340"/>
</clipPath>
<g id="surface5" clip-path="url(#clip1)">
<path style=" stroke:none;fill-rule:nonzero;fill:rgb(0%,0%,0%);fill-opacity:1;" d="M 138.03125 25.40625 L 98.082031 42.5 C 97.453125 42.769531 96.742188 42.769531 96.109375 42.503906 L 55.621094 25.410156 C 55.109375 25.199219 54.6875 24.828125 54.414062 24.347656 C 54.054688 24.976562 53.976562 25.726562 54.207031 26.414062 C 54.4375 27.097656 54.953125 27.652344 55.621094 27.933594 L 96.109375 45.027344 C 96.742188 45.292969 97.453125 45.292969 98.082031 45.023438 L 138.03125 27.929688 C 138.691406 27.644531 139.203125 27.089844 139.429688 26.40625 C 139.660156 25.722656 139.585938 24.972656 139.222656 24.347656 C 138.953125 24.824219 138.535156 25.195312 138.03125 25.40625 Z M 138.03125 25.40625 "/>
</g>
</defs>
<g id="surface1">
<path style=" stroke:none;fill-rule:nonzero;fill:rgb(94.901961%,94.901961%,94.901961%);fill-opacity:1;" d="M 298.871094 255.023438 L 298.871094 337.027344 L 93.558594 337.027344 C 70.164062 337.027344 51.132812 318.632812 51.132812 296.023438 C 51.132812 273.417969 70.164062 255.023438 93.558594 255.023438 Z M 298.871094 255.023438 "/>
<path style=" stroke:none;fill-rule:nonzero;fill:rgb(42.352941%,38.823529%,100%);fill-opacity:1;" d="M 303.914062 336.394531 C 303.914062 338.136719 302.5 339.550781 300.761719 339.550781 L 89.902344 339.550781 C 66.050781 339.550781 46.71875 320.203125 46.71875 296.339844 C 46.71875 272.476562 66.050781 253.128906 89.902344 253.128906 L 300.761719 253.128906 C 302.503906 253.128906 303.914062 254.542969 303.914062 256.285156 C 303.914062 258.027344 302.503906 259.4375 300.761719 259.4375 L 89.902344 259.4375 C 69.535156 259.4375 53.023438 275.960938 53.023438 296.339844 C 53.023438 316.71875 69.535156 333.242188 89.902344 333.242188 L 300.761719 333.242188 C 302.5 333.242188 303.914062 334.652344 303.914062 336.394531 Z M 303.914062 336.394531 "/>
<path style=" stroke:none;fill-rule:nonzero;fill:rgb(80%,80%,80%);fill-opacity:1;" d="M 298.871094 273.945312 L 78.238281 273.945312 C 77.890625 273.945312 77.609375 273.664062 77.609375 273.316406 C 77.609375 272.96875 77.890625 272.683594 78.238281 272.683594 L 298.871094 272.683594 C 299.21875 272.683594 299.5 272.96875 299.5 273.316406 C 299.5 273.664062 299.21875 273.945312 298.871094 273.945312 Z M 298.871094 273.945312 "/>
<path style=" stroke:none;fill-rule:nonzero;fill:rgb(80%,80%,80%);fill-opacity:1;" d="M 298.871094 289.085938 L 78.238281 289.085938 C 77.890625 289.085938 77.609375 288.804688 77.609375 288.453125 C 77.609375 288.105469 77.890625 287.824219 78.238281 287.824219 L 298.871094 287.824219 C 299.21875 287.824219 299.5 288.105469 299.5 288.453125 C 299.5 288.804688 299.21875 289.085938 298.871094 289.085938 Z M 298.871094 289.085938 "/>
<path style=" stroke:none;fill-rule:nonzero;fill:rgb(80%,80%,80%);fill-opacity:1;" d="M 298.871094 304.226562 L 78.238281 304.226562 C 77.890625 304.226562 77.609375 303.941406 77.609375 303.59375 C 77.609375 303.246094 77.890625 302.964844 78.238281 302.964844 L 298.871094 302.964844 C 299.21875 302.964844 299.5 303.246094 299.5 303.59375 C 299.5 303.941406 299.21875 304.226562 298.871094 304.226562 Z M 298.871094 304.226562 "/>
<path style=" stroke:none;fill-rule:nonzero;fill:rgb(80%,80%,80%);fill-opacity:1;" d="M 298.871094 319.363281 L 78.238281 319.363281 C 77.890625 319.363281 77.609375 319.082031 77.609375 318.734375 C 77.609375 318.386719 77.890625 318.101562 78.238281 318.101562 L 298.871094 318.101562 C 299.21875 318.101562 299.5 318.386719 299.5 318.734375 C 299.5 319.082031 299.21875 319.363281 298.871094 319.363281 Z M 298.871094 319.363281 "/>
<path style=" stroke:none;fill-rule:nonzero;fill:rgb(94.901961%,94.901961%,94.901961%);fill-opacity:1;" d="M 457.546875 270.457031 L 406.128906 334.3125 L 246.257812 205.410156 C 228.042969 190.722656 224.753906 164.449219 238.929688 146.847656 C 253.105469 129.242188 279.457031 126.867188 297.675781 141.554688 Z M 457.546875 270.457031 "/>
<path style=" stroke:none;fill-rule:nonzero;fill:rgb(80%,80%,80%);fill-opacity:1;" d="M 410.453125 336.988281 C 409.359375 338.34375 407.375 338.558594 406.019531 337.464844 L 241.828125 205.078125 C 223.257812 190.105469 220.332031 162.902344 235.296875 144.320312 C 250.257812 125.738281 277.441406 122.8125 296.011719 137.785156 L 460.207031 270.171875 C 461.5625 271.265625 461.777344 273.25 460.683594 274.609375 C 459.589844 275.964844 457.605469 276.179688 456.25 275.085938 L 292.058594 142.699219 C 276.199219 129.902344 252.976562 132.394531 240.195312 148.269531 C 227.410156 164.144531 229.914062 187.382812 245.78125 200.167969 L 409.976562 332.554688 C 411.332031 333.648438 411.542969 335.632812 410.453125 336.988281 Z M 410.453125 336.988281 "/>
<path style=" stroke:none;fill-rule:nonzero;fill:rgb(80%,80%,80%);fill-opacity:1;" d="M 445.683594 285.195312 L 273.878906 146.671875 C 273.609375 146.453125 273.566406 146.058594 273.785156 145.785156 C 274.003906 145.515625 274.398438 145.472656 274.671875 145.691406 L 446.472656 284.210938 C 446.648438 284.351562 446.734375 284.578125 446.699219 284.800781 C 446.667969 285.023438 446.515625 285.210938 446.304688 285.292969 C 446.09375 285.375 445.855469 285.335938 445.683594 285.195312 Z M 445.683594 285.195312 "/>
<path style=" stroke:none;fill-rule:nonzero;fill:rgb(80%,80%,80%);fill-opacity:1;" d="M 436.1875 296.984375 L 264.386719 158.460938 C 264.117188 158.242188 264.074219 157.847656 264.292969 157.574219 C 264.511719 157.304688 264.90625 157.261719 265.179688 157.480469 L 436.980469 296 C 437.15625 296.140625 437.242188 296.367188 437.207031 296.589844 C 437.175781 296.8125 437.023438 297 436.8125 297.082031 C 436.601562 297.164062 436.363281 297.125 436.1875 296.984375 Z M 436.1875 296.984375 "/>
<path style=" stroke:none;fill-rule:nonzero;fill:rgb(80%,80%,80%);fill-opacity:1;" d="M 426.695312 308.773438 L 254.894531 170.25 C 254.625 170.03125 254.582031 169.632812 254.800781 169.363281 C 255.019531 169.09375 255.414062 169.050781 255.6875 169.269531 L 427.488281 307.789062 C 427.757812 308.007812 427.800781 308.40625 427.582031 308.675781 C 427.363281 308.949219 426.96875 308.992188 426.695312 308.773438 Z M 426.695312 308.773438 "/>
<path style=" stroke:none;fill-rule:nonzero;fill:rgb(80%,80%,80%);fill-opacity:1;" d="M 417.203125 320.558594 L 245.402344 182.039062 C 245.132812 181.820312 245.089844 181.421875 245.308594 181.152344 C 245.527344 180.878906 245.921875 180.835938 246.195312 181.054688 L 417.996094 319.578125 C 418.171875 319.71875 418.257812 319.945312 418.222656 320.167969 C 418.1875 320.390625 418.039062 320.578125 417.828125 320.65625 C 417.617188 320.738281 417.378906 320.703125 417.203125 320.558594 Z M 417.203125 320.558594 "/>
<path style=" stroke:none;fill-rule:nonzero;fill:rgb(80%,80%,80%);fill-opacity:1;" d="M 468.371094 340.179688 L 0.628906 340.179688 C 0.28125 340.179688 0 339.898438 0 339.550781 C 0 339.203125 0.28125 338.917969 0.628906 338.917969 L 468.371094 338.917969 C 468.71875 338.917969 469 339.203125 469 339.550781 C 469 339.898438 468.71875 340.179688 468.371094 340.179688 Z M 468.371094 340.179688 "/>
<path style=" stroke:none;fill-rule:nonzero;fill:rgb(100%,72.156863%,72.156863%);fill-opacity:1;" d="M 213.117188 246.402344 L 205.910156 246.402344 L 202.484375 218.585938 L 213.121094 218.589844 Z M 213.117188 246.402344 "/>
<path style=" stroke:none;fill-rule:nonzero;fill:rgb(18.431373%,18.039216%,25.490196%);fill-opacity:1;" d="M 200.765625 244.34375 L 214.664062 244.34375 L 214.664062 253.097656 L 192.011719 253.097656 C 192.011719 248.261719 195.929688 244.34375 200.765625 244.34375 Z M 200.765625 244.34375 "/>
<path style=" stroke:none;fill-rule:nonzero;fill:rgb(100%,72.156863%,72.156863%);fill-opacity:1;" d="M 139.492188 246.402344 L 132.285156 246.402344 L 128.859375 218.585938 L 139.496094 218.589844 Z M 139.492188 246.402344 "/>
<path style=" stroke:none;fill-rule:nonzero;fill:rgb(18.431373%,18.039216%,25.490196%);fill-opacity:1;" d="M 127.140625 244.34375 L 141.039062 244.34375 L 141.039062 253.097656 L 118.386719 253.097656 C 118.386719 248.261719 122.304688 244.34375 127.140625 244.34375 Z M 127.140625 244.34375 "/>
<path style=" stroke:none;fill-rule:nonzero;fill:rgb(18.431373%,18.039216%,25.490196%);fill-opacity:1;" d="M 163.5625 40.078125 L 163.5625 36.921875 C 163.5625 25.6875 172.667969 16.578125 183.894531 16.578125 C 195.121094 16.578125 204.222656 25.6875 204.222656 36.921875 L 204.222656 40.078125 C 204.222656 48.175781 197.660156 54.742188 189.566406 54.742188 L 178.21875 54.742188 C 170.125 54.742188 163.5625 48.175781 163.5625 40.078125 Z M 163.5625 40.078125 "/>
<path style=" stroke:none;fill-rule:nonzero;fill:rgb(100%,72.156863%,72.156863%);fill-opacity:1;" d="M 199.375 40.335938 C 199.375 48.890625 192.445312 55.828125 183.894531 55.828125 C 175.34375 55.828125 168.410156 48.890625 168.410156 40.335938 C 168.410156 31.777344 175.34375 24.839844 183.894531 24.839844 C 192.445312 24.839844 199.375 31.777344 199.375 40.335938 Z M 199.375 40.335938 "/>
<path style=" stroke:none;fill-rule:nonzero;fill:rgb(100%,72.156863%,72.156863%);fill-opacity:1;" d="M 99.679688 93.582031 C 100.949219 92.378906 102.6875 91.804688 104.425781 92.007812 C 106.164062 92.210938 107.722656 93.175781 108.679688 94.640625 L 121.953125 92.128906 L 125.445312 99.828125 L 106.652344 103.109375 C 104.03125 104.59375 100.714844 103.878906 98.933594 101.445312 C 97.15625 99.015625 97.476562 95.636719 99.679688 93.582031 Z M 99.679688 93.582031 "/>
<path style=" stroke:none;fill-rule:nonzero;fill:rgb(80%,80%,80%);fill-opacity:1;" d="M 171.824219 65.585938 L 171.996094 65.847656 L 150.234375 80.195312 L 113.507812 91.929688 C 112.503906 92.253906 111.867188 93.238281 111.988281 94.289062 L 112.789062 101.191406 C 112.859375 101.8125 113.191406 102.371094 113.695312 102.734375 C 114.199219 103.09375 114.835938 103.226562 115.441406 103.097656 L 150.007812 95.683594 C 151.679688 95.328125 153.261719 94.628906 154.652344 93.636719 L 179.105469 76.226562 C 180.90625 74.9375 181.902344 72.796875 181.726562 70.585938 C 181.542969 68.371094 180.207031 66.414062 178.210938 65.441406 C 176.210938 64.472656 173.851562 64.625 171.996094 65.847656 Z M 171.824219 65.585938 "/>
<path style=" stroke:none;fill-rule:nonzero;fill:rgb(18.431373%,18.039216%,25.490196%);fill-opacity:1;" d="M 206.039062 238.511719 C 204.910156 238.511719 203.886719 237.839844 203.433594 236.804688 L 170.394531 155.117188 C 170.234375 154.753906 169.871094 154.527344 169.472656 154.550781 C 169.078125 154.574219 168.738281 154.839844 168.625 155.21875 L 141.671875 234.742188 C 141.441406 235.492188 140.910156 236.113281 140.210938 236.457031 C 139.507812 236.800781 138.695312 236.84375 137.960938 236.566406 L 128.921875 233.175781 C 127.921875 232.804688 127.21875 231.902344 127.097656 230.839844 C 123.03125 195.394531 158.492188 105.921875 158.847656 105.023438 L 158.949219 104.773438 L 191.273438 111.929688 L 191.339844 112.003906 C 204.234375 126.082031 214.835938 214.875 216.828125 232.53125 C 216.984375 233.84375 216.203125 235.089844 214.957031 235.523438 L 206.980469 238.347656 C 206.675781 238.457031 206.359375 238.511719 206.039062 238.511719 Z M 206.039062 238.511719 "/>
<path style=" stroke:none;fill-rule:nonzero;fill:rgb(80%,80%,80%);fill-opacity:1;" d="M 178.191406 114.808594 C 170.359375 114.808594 161.628906 113.246094 158.941406 106.796875 L 158.878906 106.648438 L 158.960938 106.511719 C 161.082031 103.027344 163.886719 97.085938 162.378906 95.972656 C 159.410156 93.777344 157.96875 90.164062 158.097656 85.230469 C 158.375 74.53125 165.664062 65.027344 176.230469 61.589844 C 179.183594 60.644531 182.183594 59.871094 185.222656 59.273438 C 189.710938 58.367188 194.363281 59.515625 197.914062 62.40625 C 201.507812 65.320312 203.609375 69.6875 203.648438 74.3125 C 203.757812 85.75 202 101.679688 192.988281 112.613281 C 192.5625 113.121094 191.976562 113.464844 191.328125 113.578125 C 186.992188 114.363281 182.597656 114.777344 178.191406 114.808594 Z M 178.191406 114.808594 "/>
<path style=" stroke:none;fill-rule:nonzero;fill:rgb(100%,72.156863%,72.156863%);fill-opacity:1;" d="M 175.277344 114.378906 C 176.164062 111.195312 179.449219 109.320312 182.640625 110.175781 C 182.953125 110.265625 183.257812 110.378906 183.550781 110.515625 L 193.628906 101.335938 L 200.636719 106.0625 L 186.226562 118.824219 C 184.886719 121.238281 182.074219 122.433594 179.410156 121.71875 C 177.886719 121.300781 176.589844 120.289062 175.8125 118.910156 C 175.039062 117.535156 174.84375 115.902344 175.277344 114.378906 Z M 175.277344 114.378906 "/>
<path style=" stroke:none;fill-rule:nonzero;fill:rgb(80%,80%,80%);fill-opacity:1;" d="M 192.03125 114.496094 C 191.378906 114.496094 190.746094 114.269531 190.238281 113.855469 L 186.265625 110.605469 C 185.59375 110.058594 185.210938 109.230469 185.222656 108.363281 C 185.238281 107.496094 185.644531 106.683594 186.332031 106.15625 L 203 93.363281 C 203.414062 93.046875 203.492188 92.457031 203.179688 92.042969 L 192.890625 78.433594 C 190.425781 75.179688 190.660156 70.617188 193.453125 67.636719 C 196.402344 64.445312 201.308594 64.054688 204.726562 66.734375 L 204.792969 66.804688 L 215.535156 82.195312 C 217.890625 84.042969 219.246094 86.886719 219.203125 89.878906 C 219.15625 92.875 217.71875 95.675781 215.308594 97.453125 L 193.722656 113.941406 C 193.230469 114.300781 192.640625 114.496094 192.03125 114.496094 Z M 192.03125 114.496094 "/>
<path style=" stroke:none;fill-rule:nonzero;fill:rgb(18.431373%,18.039216%,25.490196%);fill-opacity:1;" d="M 170.179688 35.976562 L 170.179688 28.289062 L 183.894531 22.296875 L 196.96875 28.289062 L 196.96875 35.976562 C 196.96875 36.671875 196.40625 37.238281 195.710938 37.238281 L 171.441406 37.238281 C 170.746094 37.238281 170.179688 36.671875 170.179688 35.976562 Z M 170.179688 35.976562 "/>
<path style=" stroke:none;fill-rule:nonzero;fill:rgb(18.431373%,18.039216%,25.490196%);fill-opacity:1;" d="M 183.265625 17.597656 C 181.246094 11.140625 185.484375 3.738281 191.742188 1.183594 C 198.003906 -1.375 205.492188 0.414062 210.777344 4.636719 C 216.058594 8.859375 219.335938 15.1875 221.074219 21.726562 C 222.808594 28.265625 223.140625 35.085938 223.460938 41.84375 C 231.152344 43.257812 236.386719 52.386719 233.71875 59.742188 C 231.054688 67.101562 221.191406 70.757812 214.382812 66.910156 C 207.570312 63.066406 205.597656 52.726562 210.515625 46.640625 C 215.300781 40.714844 215.453125 32.296875 210.882812 26.199219 C 206.3125 20.105469 198.191406 17.894531 191.167969 20.835938 C 187.378906 22.421875 182.621094 18.300781 183.265625 17.597656 Z M 183.265625 17.597656 "/>
<path style=" stroke:none;fill-rule:nonzero;fill:rgb(42.352941%,38.823529%,100%);fill-opacity:1;" d="M 96.835938 63.761719 C 87.625 63.703125 78.53125 61.710938 70.140625 57.914062 C 69.117188 57.457031 68.464844 56.441406 68.46875 55.324219 L 68.46875 32.351562 C 68.46875 30.785156 69.738281 29.515625 71.304688 29.511719 L 122.363281 29.511719 C 123.929688 29.515625 125.199219 30.785156 125.203125 32.351562 L 125.203125 55.324219 C 125.207031 56.441406 124.550781 57.457031 123.53125 57.914062 C 115.136719 61.710938 106.042969 63.703125 96.835938 63.761719 Z M 96.835938 63.761719 "/>
<path style=" stroke:none;fill-rule:nonzero;fill:rgb(42.352941%,38.823529%,100%);fill-opacity:1;" d="M 96.828125 45.152344 C 96.449219 45.152344 96.074219 45.078125 95.726562 44.929688 L 55.234375 27.835938 C 54.167969 27.386719 53.480469 26.328125 53.5 25.167969 C 53.523438 24.007812 54.246094 22.980469 55.332031 22.566406 L 95.824219 7.195312 C 96.476562 6.949219 97.195312 6.949219 97.847656 7.199219 L 137.796875 22.570312 C 138.871094 22.984375 139.589844 24.011719 139.613281 25.167969 C 139.632812 26.324219 138.953125 27.375 137.890625 27.832031 L 97.945312 44.925781 C 97.589844 45.074219 97.210938 45.152344 96.828125 45.152344 Z M 96.828125 45.152344 "/>
<path style=" stroke:none;fill-rule:nonzero;fill:rgb(24.705882%,23.921569%,33.72549%);fill-opacity:1;" d="M 76.976562 55.691406 C 76.976562 57.78125 75.285156 59.476562 73.195312 59.476562 C 71.105469 59.476562 69.414062 57.78125 69.414062 55.691406 C 69.414062 53.601562 71.105469 51.90625 73.195312 51.90625 C 75.285156 51.90625 76.976562 53.601562 76.976562 55.691406 Z M 76.976562 55.691406 "/>
<use xlink:href="#surface5" mask="url(#mask0)"/>
<path style=" stroke:none;fill-rule:nonzero;fill:rgb(24.705882%,23.921569%,33.72549%);fill-opacity:1;" d="M 73.511719 55.675781 C 73.863281 55.675781 74.144531 55.394531 74.144531 55.046875 L 74.144531 33.9375 L 94.933594 26.359375 C 95.28125 26.363281 95.570312 26.085938 95.574219 25.738281 C 95.578125 25.390625 95.300781 25.101562 94.953125 25.097656 L 74.164062 32.675781 C 73.824219 32.667969 73.496094 32.800781 73.257812 33.039062 C 73.019531 33.273438 72.882812 33.597656 72.882812 33.9375 L 72.882812 55.046875 C 72.882812 55.394531 73.164062 55.675781 73.511719 55.675781 Z M 73.511719 55.675781 "/>
</g>
</svg>
